<?xml version="1.0" encoding="UTF-8" standalone="no"?>
<!-- Created with Inkscape (http://www.inkscape.org/) -->

<svg
   xmlns:dc="http://purl.org/dc/elements/1.1/"
   xmlns:cc="http://creativecommons.org/ns#"
   xmlns:rdf="http://www.w3.org/1999/02/22-rdf-syntax-ns#"
   xmlns:svg="http://www.w3.org/2000/svg"
   xmlns="http://www.w3.org/2000/svg"
   xmlns:sodipodi="http://sodipodi.sourceforge.net/DTD/sodipodi-0.dtd"
   xmlns:inkscape="http://www.inkscape.org/namespaces/inkscape"
   id="svg2"
   version="1.1"
   inkscape:version="0.48.4 r9939"
   width="567.975"
   height="746.6"
   xml:space="preserve"
   sodipodi:docname="technogirl-vector.svg"
   inkscape:export-filename="/home/frank/workspace/Selma/pictures/technogirl-vector.png"
   inkscape:export-xdpi="36.209999"
   inkscape:export-ydpi="36.209999"><metadata
     id="metadata8"><rdf:RDF><cc:Work
         rdf:about=""><dc:format>image/svg+xml</dc:format><dc:type
           rdf:resource="http://purl.org/dc/dcmitype/StillImage" /><dc:title></dc:title></cc:Work></rdf:RDF></metadata><defs
     id="defs6"><clipPath
       clipPathUnits="userSpaceOnUse"
       id="clipPath18"><path
         d="M 0,5972.78 0,0 l 4543.81,0 0,5972.78 -4543.81,0 z"
         id="path20" /></clipPath><clipPath
       clipPathUnits="userSpaceOnUse"
       id="clipPath28"><path
         d="m 165.867,4153.85 c -13.324,-60.58 -5.75,-413.68 12.418,-494.85 l 0,0 c 10.188,-45.52 45.664,-82.3 63.32,-78.24 l 0,0 21.836,12.7 c 0.872,2.01 1.579,4.05 2.528,6.02 l 0,0 c 56.273,57.89 206.394,234.19 236.672,329.05 l 0,0 0,0.01 c 36.679,41.04 121.64,42.75 183.48,-9.51 l 0,0 c 16.551,-189.82 83.281,-461.7 350.729,-461.73 l 0,0 c 283.21,-0.03 329.6,382.14 341.61,512.41 l 0,0 c 11.23,121.65 -26.88,290.49 -117.5,298 l 0,0 c -87.08,7.24 -295.593,16.46 -419.14,12.13 l 0,0 c -138.093,-4.86 -161.101,-117.52 -161.101,-201.1 l 0,0 c 0,-10.32 -12.289,-35.02 -19.149,-32.12 l 0,0 c -41.007,17.35 -97.414,30.29 -140.09,15.11 l 0,0 c 0.493,73.95 -12.027,141.43 -18.839,173.28 l 0,0 c -5.786,27 -84.668,73.47 -165.688,73.47 l 0,0 c -71.68,0.01 -145.043,-36.33 -171.086,-154.63 m 906.433,69.35 248.93,0 0,-251.66 -248.93,0 0,251.66 z"
         id="path30" /></clipPath><clipPath
       clipPathUnits="userSpaceOnUse"
       id="clipPath34"><path
         d="M -273.063,3887.64 777.363,4927.48 1815.26,3879.02 764.836,2839.17 -273.063,3887.64 z"
         id="path36" /></clipPath><linearGradient
       x1="0"
       y1="0"
       x2="1"
       y2="0"
       gradientUnits="userSpaceOnUse"
       gradientTransform="matrix(86.792,85.9175,85.9175,-86.792,24.2129,342.371)"
       spreadMethod="pad"
       id="linearGradient38"><stop
         style="stop-opacity:1;stop-color:#1b1919"
         offset="0"
         id="stop40" /><stop
         style="stop-opacity:1;stop-color:#464648"
         offset="0.377243"
         id="stop42" /><stop
         style="stop-opacity:1;stop-color:#464648"
         offset="0.377243"
         id="stop44" /><stop
         style="stop-opacity:1;stop-color:#100f0d"
         offset="0.538925"
         id="stop46" /><stop
         style="stop-opacity:1;stop-color:#464648"
         offset="0.718567"
         id="stop48" /><stop
         style="stop-opacity:1;stop-color:#100f0d"
         offset="1"
         id="stop50" /></linearGradient></defs><sodipodi:namedview
     pagecolor="#ffffff"
     bordercolor="#666666"
     borderopacity="1"
     objecttolerance="10"
     gridtolerance="10"
     guidetolerance="10"
     inkscape:pageopacity="0"
     inkscape:pageshadow="2"
     inkscape:window-width="640"
     inkscape:window-height="480"
     id="namedview4"
     showgrid="false"
     inkscape:zoom="0.31609966"
     inkscape:cx="283.98749"
     inkscape:cy="373.29999"
     inkscape:window-x="116"
     inkscape:window-y="20"
     inkscape:window-maximized="0"
     inkscape:current-layer="g10" /><g
     id="g10"
     inkscape:groupmode="layer"
     inkscape:label="ink_ext_XXXXXX"
     transform="matrix(1.25,0,0,-1.25,0,746.6)"><g
       id="g12"
       transform="scale(0.1,0.1)"><g
         id="g14"><g
           id="g16"
           clip-path="url(#clipPath18)"><path
             d="m 605.484,4895.85 c 92.961,-272.58 732.656,-446.69 1362.546,-325.7 -569.58,-66.22 -1121.971,59.16 -1329.284,369.07 -16.91,25.24 -47.508,-1.58 -33.262,-43.37 m 148.071,313.61 c 13.633,-31.74 308.735,-445.69 921.705,-487.48 -307.7,34.53 -680.201,227.04 -856.455,512.41 -44.543,72.12 -78.903,6.79 -65.25,-24.93 m 839.325,458.62 c 245.52,-333.4 625.06,-571.77 886.72,-552.4 -444.58,54.52 -753.21,464.51 -828.57,591.15 -60.58,101.76 -94.94,11.21 -58.15,-38.75 m 233.64,64.62 c 203.1,-275.77 517.05,-472.95 733.5,-456.91 -334.68,60.12 -623.04,384.22 -685.39,488.99 -50.11,84.16 -78.55,9.26 -48.11,-32.08 m 248.34,41.08 c 150.78,-204.75 383.89,-351.17 544.58,-339.26 -248.48,44.64 -462.57,285.3 -508.89,363.07 -37.19,62.48 -58.3,6.87 -35.69,-23.81 M 264.602,4631.12 c 0,0 -258.02778,214.42 -168.9926,433.68 -14.5352,-94.49 154.4536,-253.78 283.4606,-181.1 -59.965,66.62 -89.031,130.83 -94.484,232.59 55.41,-110.84 163.539,-50.88 163.539,-50.88 0,0 -73.598,95.4 -20.492,207.79 -18.168,-79.96 60.465,-128.45 60.465,-128.45 414.297,551.18 937.612,685.65 1075.702,685.65 109.03,134.46 348.88,141.73 348.88,141.73 0,0 -79.96,-43.61 -65.41,-87.23 159.88,10.91 297.88,5.64 297.88,5.64 127.3,-52.88 674.48,-111.58 819.01,-1218.22 l 113.87,6.05 0,-221.68 c 0,-129.62 -414.9,-308.91 -108.48,-436.1 0,0 47.9,-58.15 -37,-92.06 -770.34,293.15 -1180.19,447.65 -1472.93,508.78 -404.78,84.52 -567.565,-96.62 -789.815,55.72 -300.789,206.17 -409.16,64.1 -442.504,-9.47 -9.567,-21.1 -26.207,-28.85 -45.371,-15.07 C 134.047,4502.96 49.2227,4575.4 42.3086,4660.2 161.02,4542.09 264.602,4631.12 264.602,4631.12 m 816.548,-436.19 c 65.17,-36.71 131.81,-126.57 154.27,-211.19 11.97,0 34.78,10.28 34.46,18.68 -3.52,91.94 -96.57,177.86 -144.6,195.4 -19.14,6.99 -33.31,-3.9 -44.13,-2.89 m 74.68,16.36 c 65.16,-36.7 109.34,-72.65 131.82,-157.28 14.23,151.73 -90.25,157.28 -131.82,157.28 m -818.728,-1335 c -36.348,60.55 -54.946,124.32 -47.672,160.66 1.508,2.02 4.679,3.59 8.984,4.83 l 0.008,0.02 c 33.457,67.76 85.406,229.95 67.238,308.53 -67.57,32.63 -108.722,67.33 -125.894,93.81 -4.063,6.29 -8.629,18.61 -11.598,34.14 -21.652,-1.81 -119.383,2.21 -139.8282,216.45 -10.4062,109.03 -21.8085,325.86 -14.5351,546.34 1.3711,41.32 -84.5274,108.51 -72.6797,135.67 51.3164,117.65 153.113,37.12 221.68,44.81 40.75,4.58 33.914,151.43 205.332,144.16 150.574,-6.38 205.476,-172.96 442.754,-181.7 197.529,-7.27 339.179,65.41 634.769,-4.85 295.57,-70.25 1472.18,-510.17 1472.18,-510.17 l 0,-59.18 -1466.04,390.05 -22.87,120.55 c 0,0 -240.29,14.46 -475.16,20.36 -125.84,-3.28 -216.883,5.9 -333.106,-60.08 -98.074,-55.67 -146.527,-12.98 -146.527,-12.98 0,0 -123.078,161.67 -350.867,65.59 -115.7114,-48.8 -69.493,-643.42 -42.235,-719.73 23.567,-65.99 64.805,-81.39 85.016,-84.95 3.578,32.02 15.769,52.2 15.554,52.14 -17.664,-4.06 -53.132,32.72 -63.324,78.24 -18.168,81.17 -25.742,434.27 -12.418,494.85 55.485,252.05 325.867,132.04 336.774,81.16 6.836,-31.85 19.332,-99.33 18.843,-173.28 42.676,15.18 99.083,2.22 140.083,-15.11 6.878,-2.9 19.14,21.8 19.14,32.12 0,83.58 23.012,196.24 161.113,201.1 123.543,4.33 332.084,-4.89 419.134,-12.13 90.63,-7.53 128.74,-176.35 117.51,-298 -12.01,-130.27 -58.4,-512.44 -341.6,-512.41 -267.465,0.03 -334.188,271.92 -350.743,461.74 -61.84,52.25 -146.797,50.54 -183.48,9.5 l 0,-0.01 c -30.282,-104.18 -238.328,-333.07 -239.196,-335.07 -20.398,-46.73 -24.285,-97.96 -0.769,-136.16 12.965,-21.05 78.629,-62.95 163.738,-96.13 -15.906,34.01 -12.695,63.32 37.457,70.7 83.582,12.27 133.446,-45.51 184.129,-100.55 31.234,-33.93 70.258,-35.13 106.598,-15.76 36.347,19.4 58.144,92.08 21.808,128.42 36.336,4.84 57.446,-94.49 0,-147.79 -57.425,-53.3 -126.797,-21.8 -161.531,4.84 -1.609,1.25 -3.285,2.71 -4.969,4.23 -56.558,-28.13 -166.836,-96.65 -169.047,-51.47 -2.382,48.45 -29.078,76.31 -29.078,76.31 -8.816,3.51 -17.175,7.07 -25.312,10.65 27.765,-63.96 -11.969,-238.24 -26.27,-295.54 48.489,-1.58 103.672,-8.26 103.672,-8.26 0,0 253.082,-142.96 336.77,-172.02 95.203,-33.06 -16.356,-55.41 -16.356,-55.41 0,0 -243.484,100.83 -361.09,59.04 -52.875,3.36 -44.121,36.34 -86.089,7.73 M 3649.79,5408.84 c 0,0 508.8,-421.21 585.11,-842.43 32.71,342.31 -291.29,613.17 -585.11,842.43 m -18.82,-112.94 c 0,0 404.7,-522.03 387.33,-949.73 106.56,326.92 -115.66,665.61 -387.33,949.73 m -180.56,53.32 c 0,0 431.33,-711.93 351.59,-1254.48 155.49,407.99 -53.04,861 -351.59,1254.48 M 4416,4481.02 c 61.77,-305.27 84.2,-623.97 -28.46,-921.97 -10.91,65.42 -10.91,159.91 -10.91,159.91 0,0 -185.33,-530.59 -505.15,-835.87 0,76.32 3.65,98.14 3.65,98.14 0,0 -490.63,-312.54 -327.08,-577.83 -77.53,30.28 -101.77,159.9 -101.77,159.9 0,0 -172.02,-130.83 -104.18,-359.79 -73.89,21.8 -87.95,220.52 -87.95,220.52 0,0 -46.03,-16.27 -95.47,-57.43 -20.59,-101.15 -35.74,-278.21 91.36,-337.52 -62.86,-4.4 -148.89,58.22 -207.28,108.6 1.07,-128.64 36.94,-322.78 100.68,-413.86 C 3092.57,1588.13 2305.17,662.629 2050.77,8.49219 c 0,0 -41.64,-38.51169 -55.72,48.44921 -35.79,221.3476 -382.79,804.3676 -484.55,1036.9486 -98.87,226.02 -268.65,617.85 -349.3,879.91 -43.19,-7.55 -86.76,-13.56 -130.68,-17.42 -392.219,-34.26 -559.614,123.56 -619.383,223.13 -90.438,150.7 36.988,269.31 -28.817,419.25 l 0.039,-0.01 c -21.875,33.82 -33.605,73.02 -34.64,91.74 106.453,-58.15 220.328,2.41 307.551,41.18 36.339,-24.22 -107.118,-170.59 -151.125,-186.55 -37.165,-13.47 -67.954,-2.6 -92.118,18.5 44.422,-142.25 -21.773,-297.46 75.36,-392.81 103.672,-101.77 245.406,-180.51 574.313,-147.38 483.32,48.72 1270.63,542.37 1280.24,904.12 72.25,-142.57 120.7,-250.38 384.78,-357 -109.01,-21.79 -300.74,69.07 -384.78,0 -59.27,-48.71 -366.39,-306.16 -768.83,-473.47 -127.11,-103.6 -293.19,-223.14 -256.43,-322.4 62.72,-169.33 191.97,-478.51 248.95,-608.71 101.75,-232.579 415.42,-703.548 451.22,-924.9 14.08,-86.961 60.56,-7.257 60.56,-7.257 285.89,654.136 912.8,1303.437 963.66,1439.117 -64.36,91.96 -139.9,583.89 -21.2,903.69 94.5,-2.42 456.97,114.56 530.6,467.61 94.48,453.05 -264.09,627.49 -264.09,627.49 l 18.17,123.55 101.76,21.81 24.23,78.75 -81.16,32.7 6.05,70.26 105.39,29.07 c 20.6,135.67 14.54,271.34 0,407.02 l -111.44,0 -2.43,244.7 c 0,0 38.76,-9.69 71.77,-1.25 61.78,643.24 -88.79,1033.75 -88.79,1033.75 341.6,-83.59 981.29,-475.26 1121.8,-1017.95 -21.49,40.57 -64.19,64.2 -64.19,64.2 0,0 138.09,-305.28 156.27,-476.08 -8.63,54 -98.74,173.33 -127.81,198.77 m -1298.61,196.45 0,-242.59 c 61.89,8.06 154.03,8.64 192.61,0 l 2.43,242.28 c -54.22,25.75 -141.43,25.75 -195.04,0.31 M 2392.38,3630.53 c 32.71,-25.6 -39.07,-165.52 -18.78,-200.48 0,0 109.69,333.72 504.6,360.37 -168.51,58.86 -611.82,166.46 -611.82,166.46 17.75,-92.84 65.43,-379.65 -58.15,-537.13 140.54,54.51 184.15,210.78 184.15,210.78 m 637.18,1113.26 336.77,0 c 83.58,552.39 -104.18,1009.09 -104.18,1009.09 0,0 -523.17,169.17 -765.44,210.37 -242.29,41.18 -261.81,-61.99 -261.81,-101.36 l 132.04,3.03 c 0,0 512.42,-26.04 662.62,-1121.13 m -29.38,-2052.83 c 226.32,0 409.81,184.59 409.81,412.33 0,227.71 -183.49,412.32 -409.81,412.32 -226.31,0 -409.81,-184.61 -409.81,-412.32 0,-227.74 183.5,-412.33 409.81,-412.33 m -1930.62,671.85 c -29.07,-37.55 502.13,-76.32 768.01,606.9 169.58,-4.84 382.79,-3.63 382.79,-3.63 l -703.8,170.81 c 0,0 79.95,-741.38 -447,-774.08 m 2342.2,1015.74 c -51.34,27.62 -294.37,10.91 -294.37,10.91 0,0 -150.3,-167.8 -205.33,-208.97 -18.16,-41.79 -24.64,-83.48 5.75,-92.56 30.39,-9.1 497.59,-9.18 497.59,-9.18 0,0 19.97,287.1 -3.64,299.8 M 2518.86,3118.4 c 0,-255.06 205.49,-461.84 458.98,-461.84 253.52,0 459.02,206.78 459.02,461.84 0,255.05 -205.5,461.84 -459.02,461.84 -253.49,0 -458.98,-206.79 -458.98,-461.84 m -160.06,64.58 c 0,318.83 256.88,577.28 573.75,577.28 316.85,0 573.75,-258.45 573.75,-577.28 0,-318.83 -256.9,-577.28 -573.75,-577.28 -316.87,0 -573.75,258.45 -573.75,577.28 m 920.81,709.34 c -8.38,-80.65 -73.96,-139.91 -146.48,-132.37 -72.53,7.55 -124.56,79 -116.17,159.64 8.37,80.66 73.96,139.91 146.47,132.36 72.54,-7.52 124.56,-78.97 116.18,-159.63"
             style="fill:#100f0d;fill-opacity:1;fill-rule:nonzero;stroke:none"
             id="path22" /></g></g><g
         id="g24"><g
           id="g26"
           clip-path="url(#clipPath28)"><g
             id="g32"
             clip-path="url(#clipPath34)"><path
               d="m 1015,3457 0,1 -12,0 0,1 -10,0 0,1 -8,0 0,1 -6,0 0,1 -6,0 0,1 -6,0 0,1 -4,0 0,1 -4,0 0,1 -4,0 0,1 -4,0 0,1 -4,0 0,1 -4,0 0,1 -3,0 0,1 -3,0 0,1 -3,0 0,1 -3,0 0,1 -3,0 0,1 -3,0 0,1 -3,0 0,1 -2,0 0,1 -3,0 0,1 -2,0 0,1 -2,0 0,1 -3,0 0,1 -2,0 0,1 -3,0 0,1 -2,0 0,1 -2,0 0,1 -2,0 0,1 -2,0 0,1 -2,0 0,1 -2,0 0,1 -2,0 0,1 -2,0 0,1 -2,0 0,1 -1,0 0,1 -2,0 0,1 -2,0 0,1 -1,0 0,1 -2,0 0,1 -2,0 0,1 -1,0 0,1 -2,0 0,1 -2,0 0,1 -1,0 0,1 -2,0 0,1 -1,0 0,1 -2,0 0,1 -1,0 0,1 -1,0 0,1 -2,0 0,1 -1,0 0,1 -2,0 0,1 -1,0 0,1 -2,0 0,1 -1,0 0,1 -1,0 0,1 -2,0 0,1 -1,0 0,1 -1,0 0,1 -1,0 0,1 -2,0 0,1 -1,0 0,1 -1,0 0,1 -1,0 0,1 -1,0 0,1 -2,0 0,1 -1,0 0,1 -1,0 0,1 -1,0 0,1 -1,0 0,1 -1,0 0,1 -1,0 0,1 -1,0 0,1 -2,0 0,1 -1,0 0,1 -1,0 0,1 -1,0 0,1 -1,0 0,1 -1,0 0,1 -1,0 0,1 -1,0 0,1 -1,0 0,1 -1,0 0,1 -1,0 0,1 -1,0 0,1 -1,0 0,1 -1,0 0,1 -1,0 0,1 -1,0 0,1 -1,0 0,1 -1,0 0,1 -1,0 0,2 -1,0 0,1 -1,0 0,1 -1,0 0,1 -1,0 0,1 -1,0 0,1 -1,0 0,1 -1,0 0,2 -1,0 0,1 -1,0 0,1 -1,0 0,1 -1,0 0,1 -1,0 0,2 -1,0 0,1 -1,0 0,1 -1,0 0,1 -1,0 0,2 -1,0 0,1 -1,0 0,1 -1,0 0,2 -1,0 0,1 -1,0 0,1 -1,0 0,2 -1,0 0,1 -1,0 0,1 -1,0 0,2 -1,0 0,1 -1,0 0,2 -1,0 0,1 -1,0 0,1 -1,0 0,2 -1,0 0,1 -1,0 0,2 -1,0 0,1 -1,0 0,2 -1,0 0,1 -1,0 0,2 -1,0 0,2 -1,0 0,1 -1,0 0,2 -1,0 0,2 -1,0 0,1 -1,0 0,2 -1,0 0,2 -1,0 0,1 -1,0 0,2 -1,0 0,2 -1,0 0,1 -1,0 0,2 -1,0 0,2 -1,0 0,2 -1,0 0,2 -1,0 0,2 -1,0 0,1 -1,0 0,2 -1,0 0,2 -1,0 0,2 -1,0 0,2 -1,0 0,2 -1,0 0,2 -1,0 0,2 -1,0 0,2 -1,0 0,2 -1,0 0,2 -1,0 0,2 -1,0 0,3 -1,0 0,2 -1,0 0,2 -1,0 0,2 -1,0 0,3 -1,0 0,2 -1,0 0,2 -1,0 0,3 -1,0 0,2 -1,0 0,2 -1,0 0,3 -1,0 0,2 -1,0 0,3 -1,0 0,3 -1,0 0,2 -1,0 0,3 -1,0 0,2 -1,0 0,3 -1,0 0,3 -1,0 0,3 -1,0 0,3 -1,0 0,3 -1,0 0,2 -1,0 0,3 -1,0 0,4 -1,0 0,3 -1,0 0,3 -1,0 0,3 -1,0 0,3 -1,0 0,4 -1,0 0,3 -1,0 0,4 -1,0 0,3 -1,0 0,3 -1,0 0,4 -1,0 0,4 -1,0 0,4 -1,0 0,4 -1,0 0,4 -1,0 0,4 -1,0 0,4 -1,0 0,4 -1,0 0,5 -1,0 0,4 -1,0 0,5 -1,0 0,4 -1,0 0,5 -1,0 0,5 -1,0 0,5 -1,0 0,6 -1,0 0,5 -1,0 0,6 -1,0 0,6 -1,0 0,6 -1,0 0,6 -1,0 0,7 -1,0 0,7 -1,0 0,7 -1,0 0,8 -1,0 0,8 -1,0 0,9 -1,0 0,9 -1,0 0,10 -1,0 0,10 -2,0 0,1 -1,0 0,1 -1,0 0,1 -2,0 0,1 -1,0 0,1 -1,0 0,1 -1,0 0,1 -2,0 0,1 -1,0 0,1 -1,0 0,1 -2,0 0,1 -2,0 0,1 -1,0 0,1 -2,0 0,1 -1,0 0,1 -2,0 0,1 -1,0 0,1 -2,0 0,1 -2,0 0,1 -2,0 0,1 -2,0 0,1 -2,0 0,1 -2,0 0,1 -2,0 0,1 -2,0 0,1 -2,0 0,1 -3,0 0,1 -2,0 0,1 -2,0 0,1 -3,0 0,1 -3,0 0,1 -3,0 0,1 -3,0 0,1 -3,0 0,1 -4,0 0,1 -5,0 0,1 -4,0 0,1 -6,0 0,1 -8,0 0,1 -28,0 0,-1 -8,0 0,-1 -5,0 0,-1 -5,0 0,-1 -3,0 0,-1 -3,0 0,-1 -3,0 0,-1 -3,0 0,-1 -2,0 0,-1 -3,0 0,-1 -2,0 0,-1 -2,0 0,-1 -2,0 0,-1 -2,0 0,-1 -2,0 0,-1 -1,0 0,-1 -2,0 0,-1 -1,0 0,-1 -2,0 0,-1 -1,0 0,-1 -1,0 0,-1 -2,0 0,-1 -1,0 0,-1 -1,0 0,-1 -1,0 0,-1 -1,0 0,-1 -1,0 0,-1 -1,0 0,-1 -1,0 0,-1 -1,0 0,-1 -1,0 0,-2 -1,0 0,-2 -1,0 0,-3 -1,0 0,-3 -1,0 0,-2 -1,0 0,-3 -1,0 0,-3 -1,0 0,-2 -1,0 0,-2 -1,0 0,-2 -1,0 0,-2 -1,0 0,-2 -1,0 0,-3 -1,0 0,-2 -1,0 0,-2 -1,0 0,-2 -1,0 0,-2 -1,0 0,-2 -1,0 0,-2 -1,0 0,-2 -1,0 0,-2 -1,0 0,-1 -1,0 0,-2 -1,0 0,-2 -1,0 0,-2 -1,0 0,-2 -1,0 0,-2 -1,0 0,-1 -1,0 0,-2 -1,0 0,-2 -1,0 0,-2 -1,0 0,-1 -1,0 0,-2 -1,0 0,-2 -1,0 0,-1 -1,0 0,-2 -1,0 0,-2 -1,0 0,-1 -1,0 0,-2 -1,0 0,-2 -1,0 0,-1 -1,0 0,-2 -1,0 0,-1 -1,0 0,-2 -1,0 0,-2 -1,0 0,-1 -1,0 0,-2 -1,0 0,-1 -1,0 0,-2 -1,0 0,-1 -1,0 0,-2 -1,0 0,-1 -1,0 0,-2 -1,0 0,-2 -1,0 0,-1 -1,0 0,-2 -1,0 0,-1 -1,0 0,-2 -1,0 0,-1 -1,0 0,-2 -1,0 0,-1 -1,0 0,-1 -1,0 0,-2 -1,0 0,-1 -1,0 0,-2 -1,0 0,-1 -1,0 0,-2 -1,0 0,-1 -1,0 0,-2 -1,0 0,-1 -1,0 0,-2 -1,0 0,-1 -1,0 0,-1 -1,0 0,-2 -1,0 0,-1 -1,0 0,-2 -1,0 0,-1 -1,0 0,-1 -1,0 0,-2 -1,0 0,-1 -1,0 0,-2 -1,0 0,-1 -1,0 0,-1 -1,0 0,-2 -1,0 0,-1 -1,0 0,-2 -1,0 0,-1 -1,0 0,-1 -1,0 0,-2 -1,0 0,-1 -1,0 0,-1 -1,0 0,-2 -1,0 0,-1 -1,0 0,-1 -1,0 0,-2 -1,0 0,-1 -1,0 0,-1 -1,0 0,-2 -1,0 0,-1 -1,0 0,-1 -1,0 0,-2 -1,0 0,-1 -1,0 0,-1 -1,0 0,-2 -1,0 0,-1 -1,0 0,-1 -1,0 0,-2 -1,0 0,-1 -1,0 0,-1 -1,0 0,-2 -1,0 0,-1 -1,0 0,-1 -1,0 0,-2 -1,0 0,-1 -1,0 0,-1 -1,0 0,-1 -1,0 0,-2 -1,0 0,-1 -1,0 0,-1 -1,0 0,-2 -1,0 0,-1 -1,0 0,-1 -1,0 0,-1 -1,0 0,-2 -1,0 0,-1 -1,0 0,-1 -1,0 0,-2 -1,0 0,-1 -1,0 0,-1 -1,0 0,-1 -1,0 0,-2 -1,0 0,-1 -1,0 0,-1 -1,0 0,-1 -1,0 0,-2 -1,0 0,-1 -1,0 0,-1 -1,0 0,-1 -1,0 0,-2 -1,0 0,-1 -1,0 0,-1 -1,0 0,-1 -1,0 0,-1 -1,0 0,-2 -1,0 0,-1 -1,0 0,-1 -1,0 0,-1 -1,0 0,-2 -1,0 0,-1 -1,0 0,-1 -1,0 0,-1 -1,0 0,-1 -1,0 0,-2 -1,0 0,-1 -1,0 0,-1 -1,0 0,-1 -1,0 0,-2 -1,0 0,-1 -1,0 0,-1 -1,0 0,-1 -1,0 0,-1 -1,0 0,-2 -1,0 0,-1 -1,0 0,-1 -1,0 0,-1 -1,0 0,-1 -1,0 0,-2 -1,0 0,-1 -1,0 0,-1 -1,0 0,-1 -1,0 0,-1 -1,0 0,-1 -1,0 0,-2 -1,0 0,-1 -1,0 0,-1 -1,0 0,-1 -1,0 0,-1 -1,0 0,-1 -1,0 0,-2 -1,0 0,-1 -1,0 0,-1 -1,0 0,-1 -1,0 0,-1 -1,0 0,-1 -1,0 0,-2 -1,0 0,-1 -1,0 0,-1 -1,0 0,-1 -1,0 0,-1 -1,0 0,-1 -1,0 0,-2 -1,0 0,-1 -1,0 0,-1 -1,0 0,-1 -1,0 0,-1 -1,0 0,-1 -1,0 0,-1 -1,0 0,-2 -1,0 0,-1 -1,0 0,-1 -1,0 0,-1 -1,0 0,-1 -1,0 0,-1 -1,0 0,-1 -1,0 0,-1 -1,0 0,-1 -1,0 0,-2 -1,0 0,-1 -1,0 0,-1 -1,0 0,-1 -1,0 0,-1 -1,0 0,-1 -1,0 0,-1 -1,0 0,-1 -1,0 0,-1 -1,0 0,-2 -1,0 0,-1 -1,0 0,-1 -1,0 0,-1 -1,0 0,-1 -1,0 0,-1 -1,0 0,-1 -1,0 0,-1 -1,0 0,-1 -1,0 0,-1 -1,0 0,-1 -1,0 0,-1 -1,0 0,-2 -1,0 0,-1 -1,0 0,-1 -1,0 0,-1 -1,0 0,-1 -1,0 0,-1 -1,0 0,-1 -1,0 0,-1 -1,0 0,-1 -1,0 0,-1 -1,0 0,-2 -1,0 0,-3 -1,0 0,-1 -1,0 0,-1 -2,0 0,-1 -1,0 0,-1 -2,0 0,-1 -2,0 0,-1 -1,0 0,-1 -2,0 0,-1 -2,0 0,-1 -2,0 0,-1 -1,0 0,-1 -2,0 0,-1 -2,0 0,-1 -1,0 0,-1 -7,0 0,1 -4,0 0,1 -3,0 0,1 -2,0 0,1 -2,0 0,1 -1,0 0,1 -2,0 0,1 -1,0 0,1 -1,0 0,1 -2,0 0,1 -1,0 0,1 -1,0 0,1 -1,0 0,1 -1,0 0,1 -1,0 0,1 -1,0 0,1 -1,0 0,1 -1,0 0,1 -1,0 0,1 -1,0 0,1 -1,0 0,1 -1,0 0,1 -1,0 0,2 -1,0 0,1 -1,0 0,1 -1,0 0,2 -1,0 0,1 -1,0 0,1 -1,0 0,2 -1,0 0,1 -1,0 0,2 -1,0 0,1 -1,0 0,2 -1,0 0,2 -1,0 0,1 -1,0 0,2 -1,0 0,2 -1,0 0,1 -1,0 0,3 -1,0 0,2 -1,0 0,2 -1,0 0,3 -1,0 0,2 -1,0 0,2 -1,0 0,3 -1,0 0,3 -1,0 0,3 -1,0 0,4 -1,0 0,3 -1,0 0,4 -1,0 0,6 -1,0 0,5 -1,0 0,6 -1,0 0,8 -1,0 0,8 -1,0 0,8 -1,0 0,10 -1,0 0,10 -1,0 0,11 -1,0 0,14 -1,0 0,13 -1,0 0,16 -1,0 0,17 -1,0 0,19 -1,0 0,21 -1,0 0,26 -1,0 0,30 -1,0 0,40 -1,0 0,148 1,0 0,27 1,0 0,18 1,0 0,12 1,0 0,9 1,0 0,7 1,0 0,6 1,0 0,4 1,0 0,4 1,0 0,4 1,0 0,4 1,0 0,3 1,0 0,4 1,0 0,3 1,0 0,3 1,0 0,3 1,0 0,3 1,0 0,3 1,0 0,3 1,0 0,2 1,0 0,2 1,0 0,3 1,0 0,2 1,0 0,2 1,0 0,3 1,0 0,2 1,0 0,2 1,0 0,2 1,0 0,2 1,0 0,2 1,0 0,2 1,0 0,2 1,0 0,2 1,0 0,1 1,0 0,2 1,0 0,2 1,0 0,1 1,0 0,2 1,0 0,1 1,0 0,2 1,0 0,2 1,0 0,1 1,0 0,2 1,0 0,1 1,0 0,1 1,0 0,2 1,0 0,1 1,0 0,1 1,0 0,1 1,0 0,2 1,0 0,1 1,0 0,1 1,0 0,2 1,0 0,1 1,0 0,1 1,0 0,1 1,0 0,1 1,0 0,1 1,0 0,1 1,0 0,1 1,0 0,1 1,0 0,1 1,0 0,1 1,0 0,1 1,0 0,1 1,0 0,1 1,0 0,1 1,0 0,1 1,0 0,1 2,0 0,1 1,0 0,1 1,0 0,1 1,0 0,1 1,0 0,1 1,0 0,1 2,0 0,1 1,0 0,1 2,0 0,1 1,0 0,1 2,0 0,1 1,0 0,1 1,0 0,1 2,0 0,1 2,0 0,1 1,0 0,1 2,0 0,1 2,0 0,1 2,0 0,1 1,0 0,1 2,0 0,1 2,0 0,1 3,0 0,1 2,0 0,1 2,0 0,1 2,0 0,1 3,0 0,1 3,0 0,1 3,0 0,1 2,0 0,1 3,0 0,1 4,0 0,1 4,0 0,1 4,0 0,1 5,0 0,1 6,0 0,1 7,0 0,1 10,0 0,1 28,0 0,-1 11,0 0,-1 8,0 0,-1 6,0 0,-1 6,0 0,-1 5,0 0,-1 4,0 0,-1 5,0 0,-1 4,0 0,-1 3,0 0,-1 4,0 0,-1 3,0 0,-1 3,0 0,-1 3,0 0,-1 3,0 0,-1 3,0 0,-1 3,0 0,-1 2,0 0,-1 3,0 0,-1 2,0 0,-1 3,0 0,-1 2,0 0,-1 2,0 0,-1 3,0 0,-1 2,0 0,-1 2,0 0,-1 2,0 0,-1 2,0 0,-1 2,0 0,-1 2,0 0,-1 2,0 0,-1 2,0 0,-1 2,0 0,-1 1,0 0,-1 2,0 0,-1 2,0 0,-1 1,0 0,-1 2,0 0,-1 2,0 0,-1 1,0 0,-1 2,0 0,-1 1,0 0,-1 2,0 0,-1 1,0 0,-1 1,0 0,-1 2,0 0,-1 1,0 0,-1 1,0 0,-1 2,0 0,-1 1,0 0,-1 1,0 0,-1 1,0 0,-1 1,0 0,-1 1,0 0,-1 1,0 0,-1 1,0 0,-1 1,0 0,-1 1,0 0,-1 1,0 0,-1 1,0 0,-1 1,0 0,-1 1,0 0,-1 1,0 0,-2 1,0 0,-1 1,0 0,-2 1,0 0,-2 1,0 0,-3 1,0 0,-3 1,0 0,-5 1,0 0,-5 1,0 0,-5 1,0 0,-5 1,0 0,-6 1,0 0,-5 1,0 0,-6 1,0 0,-6 1,0 0,-7 1,0 0,-7 1,0 0,-7 1,0 0,-7 1,0 0,-9 1,0 0,-8 1,0 0,-10 1,0 0,-12 1,0 0,-14 1,0 0,-19 1,0 0,-28 4,0 0,1 4,0 0,1 3,0 0,1 4,0 0,1 8,0 0,1 8,0 0,1 23,0 0,-1 10,0 0,-1 9,0 0,-1 5,0 0,-1 6,0 0,-1 5,0 0,-1 4,0 0,-1 4,0 0,-1 4,0 0,-1 4,0 0,-1 3,0 0,-1 3,0 0,-1 3,0 0,-1 3,0 0,-1 4,0 0,-1 3,0 0,-1 2,0 0,-1 3,0 0,-1 2,0 0,-1 3,0 0,-1 3,0 0,-1 2,0 0,-1 3,0 0,1 2,0 0,1 1,0 0,1 1,0 0,1 1,0 0,2 1,0 0,1 1,0 0,1 1,0 0,2 1,0 0,2 1,0 0,2 1,0 0,2 1,0 0,2 1,0 0,3 1,0 0,3 1,0 0,3 1,0 0,21 1,0 0,17 1,0 0,9 1,0 0,9 1,0 0,6 1,0 0,6 1,0 0,6 1,0 0,4 1,0 0,4 1,0 0,5 1,0 0,3 1,0 0,4 1,0 0,3 1,0 0,3 1,0 0,3 1,0 0,3 1,0 0,3 1,0 0,2 1,0 0,3 1,0 0,2 1,0 0,3 1,0 0,2 1,0 0,2 1,0 0,2 1,0 0,2 1,0 0,2 1,0 0,2 1,0 0,1 1,0 0,2 1,0 0,2 1,0 0,2 1,0 0,1 1,0 0,2 1,0 0,1 1,0 0,2 1,0 0,1 1,0 0,2 1,0 0,1 1,0 0,2 1,0 0,1 1,0 0,1 1,0 0,1 1,0 0,1 1,0 0,1 1,0 0,2 1,0 0,1 1,0 0,1 1,0 0,1 1,0 0,1 1,0 0,1 1,0 0,1 1,0 0,1 1,0 0,1 1,0 0,1 1,0 0,1 1,0 0,1 1,0 0,1 1,0 0,1 1,0 0,1 2,0 0,1 1,0 0,1 1,0 0,1 1,0 0,1 1,0 0,1 2,0 0,1 1,0 0,1 2,0 0,1 1,0 0,1 2,0 0,1 1,0 0,1 2,0 0,1 1,0 0,1 2,0 0,1 2,0 0,1 2,0 0,1 2,0 0,1 2,0 0,1 2,0 0,1 2,0 0,1 2,0 0,1 2,0 0,1 2,0 0,1 3,0 0,1 3,0 0,1 3,0 0,1 3,0 0,1 3,0 0,1 3,0 0,1 5,0 0,1 4,0 0,1 5,0 0,1 5,0 0,1 7,0 0,1 12,0 0,1 15,0 0,1 150,0 0,-1 40,0 0,-1 32,0 0,-1 27,0 0,-1 24,0 0,-1 22,0 0,-1 20,0 0,-1 19,0 0,-1 18,0 0,-1 16,0 0,-1 16,0 0,-1 14,0 0,-1 13,0 0,-1 7,0 0,-1 5,0 0,-1 5,0 0,-1 4,0 0,-1 2,0 0,-1 2,0 0,-1 3,0 0,-1 2,0 0,-1 2,0 0,-1 2,0 0,-1 2,0 0,-1 1,0 0,-1 2,0 0,-1 1,0 0,-1 2,0 0,-1 1,0 0,-1 1,0 0,-1 2,0 0,-1 1,0 0,-1 2,0 0,-1 1,0 0,-1 1,0 0,-1 1,0 0,-1 1,0 0,-1 1,0 0,-1 1,0 0,-1 1,0 0,-1 1,0 0,-1 1,0 0,-1 1,0 0,-1 1,0 0,-1 1,0 0,-1 1,0 0,-2 1,0 0,-1 1,0 0,-1 1,0 0,-2 1,0 0,-1 1,0 0,-1 1,0 0,-2 1,0 0,-1 1,0 0,-1 1,0 0,-2 1,0 0,-1 1,0 0,-1 1,0 0,-2 1,0 0,-2 1,0 0,-1 1,0 0,-2 1,0 0,-2 1,0 0,-2 1,0 0,-1 1,0 0,-2 1,0 0,-2 1,0 0,-1 1,0 0,-3 1,0 0,-2 1,0 0,-2 1,0 0,-2 1,0 0,-2 1,0 0,-2 1,0 0,-3 1,0 0,-2 1,0 0,-2 1,0 0,-2 1,0 0,-3 1,0 0,-3 1,0 0,-3 1,0 0,-2 1,0 0,-3 1,0 0,-3 1,0 0,-2 1,0 0,-4 1,0 0,-3 1,0 0,-3 1,0 0,-4 1,0 0,-3 1,0 0,-3 1,0 0,-4 1,0 0,-4 1,0 0,-5 1,0 0,-4 1,0 0,-4 1,0 0,-5 1,0 0,-5 1,0 0,-6 1,0 0,-5 1,0 0,-6 1,0 0,-7 1,0 0,-8 1,0 0,-7 1,0 0,-10 1,0 0,-13 1,0 0,-21 1,0 0,-34 -1,0 0,-17 -1,0 0,-13 -1,0 0,-10 -1,0 0,-10 -1,0 0,-9 -1,0 0,-9 -1,0 0,-8 -1,0 0,-8 -1,0 0,-7 -1,0 0,-8 -1,0 0,-6 -1,0 0,-7 -1,0 0,-7 -1,0 0,-6 -1,0 0,-6 -1,0 0,-6 -1,0 0,-6 -1,0 0,-5 -1,0 0,-6 -1,0 0,-5 -1,0 0,-5 -1,0 0,-5 -1,0 0,-5 -1,0 0,-5 -1,0 0,-4 -1,0 0,-5 -1,0 0,-4 -1,0 0,-5 -1,0 0,-4 -1,0 0,-4 -1,0 0,-4 -1,0 0,-4 -1,0 0,-4 -1,0 0,-4 -1,0 0,-4 -1,0 0,-4 -1,0 0,-3 -1,0 0,-4 -1,0 0,-4 -1,0 0,-3 -1,0 0,-4 -1,0 0,-3 -1,0 0,-3 -1,0 0,-4 -1,0 0,-3 -1,0 0,-3 -1,0 0,-3 -1,0 0,-3 -1,0 0,-3 -1,0 0,-3 -1,0 0,-3 -1,0 0,-3 -1,0 0,-3 -1,0 0,-3 -1,0 0,-3 -1,0 0,-3 -1,0 0,-2 -1,0 0,-3 -1,0 0,-3 -1,0 0,-2 -1,0 0,-3 -1,0 0,-3 -1,0 0,-2 -1,0 0,-3 -1,0 0,-2 -1,0 0,-3 -1,0 0,-2 -1,0 0,-2 -1,0 0,-3 -1,0 0,-2 -1,0 0,-3 -1,0 0,-2 -1,0 0,-2 -1,0 0,-2 -1,0 0,-2 -1,0 0,-3 -1,0 0,-2 -1,0 0,-2 -1,0 0,-2 -1,0 0,-2 -1,0 0,-2 -1,0 0,-2 -1,0 0,-2 -1,0 0,-2 -1,0 0,-2 -1,0 0,-2 -1,0 0,-2 -1,0 0,-2 -1,0 0,-2 -1,0 0,-2 -1,0 0,-2 -1,0 0,-2 -1,0 0,-1 -1,0 0,-2 -1,0 0,-2 -1,0 0,-2 -1,0 0,-1 -1,0 0,-2 -1,0 0,-2 -1,0 0,-2 -1,0 0,-1 -1,0 0,-2 -1,0 0,-2 -1,0 0,-1 -1,0 0,-2 -1,0 0,-1 -1,0 0,-2 -1,0 0,-1 -1,0 0,-2 -1,0 0,-2 -1,0 0,-1 -1,0 0,-2 -1,0 0,-1 -1,0 0,-2 -1,0 0,-1 -1,0 0,-2 -1,0 0,-1 -1,0 0,-1 -1,0 0,-2 -1,0 0,-1 -1,0 0,-1 -1,0 0,-2 -1,0 0,-1 -1,0 0,-2 -1,0 0,-1 -1,0 0,-1 -1,0 0,-2 -1,0 0,-1 -1,0 0,-1 -1,0 0,-1 -1,0 0,-2 -1,0 0,-1 -1,0 0,-1 -1,0 0,-1 -1,0 0,-1 -1,0 0,-2 -1,0 0,-1 -1,0 0,-1 -1,0 0,-1 -1,0 0,-2 -1,0 0,-1 -1,0 0,-1 -1,0 0,-1 -1,0 0,-1 -1,0 0,-1 -1,0 0,-1 -1,0 0,-1 -1,0 0,-1 -1,0 0,-1 -1,0 0,-1 -1,0 0,-1 -1,0 0,-1 -1,0 0,-2 -1,0 0,-1 -1,0 0,-1 -1,0 0,-1 -1,0 0,-1 -1,0 0,-1 -1,0 0,-1 -2,0 0,-1 -1,0 0,-1 -1,0 0,-1 -1,0 0,-1 -1,0 0,-1 -1,0 0,-1 -1,0 0,-1 -1,0 0,-1 -1,0 0,-1 -1,0 0,-1 -1,0 0,-1 -2,0 0,-1 -1,0 0,-1 -1,0 0,-1 -1,0 0,-1 -2,0 0,-1 -1,0 0,-1 -1,0 0,-1 -1,0 0,-1 -2,0 0,-1 -1,0 0,-1 -1,0 0,-1 -2,0 0,-1 -1,0 0,-1 -1,0 0,-1 -1,0 0,-1 -2,0 0,-1 -1,0 0,-1 -2,0 0,-1 -2,0 0,-1 -1,0 0,-1 -2,0 0,-1 -1,0 0,-1 -2,0 0,-1 -1,0 0,-1 -2,0 0,-1 -1,0 0,-1 -2,0 0,-1 -2,0 0,-1 -1,0 0,-1 -2,0 0,-1 -2,0 0,-1 -2,0 0,-1 -2,0 0,-1 -2,0 0,-1 -2,0 0,-1 -1,0 0,-1 -2,0 0,-1 -2,0 0,-1 -3,0 0,-1 -2,0 0,-1 -2,0 0,-1 -3,0 0,-1 -2,0 0,-1 -2,0 0,-1 -3,0 0,-1 -2,0 0,-1 -3,0 0,-1 -3,0 0,-1 -3,0 0,-1 -3,0 0,-1 -3,0 0,-1 -4,0 0,-1 -3,0 0,-1 -4,0 0,-1 -4,0 0,-1 -5,0 0,-1 -4,0 0,-1 -5,0 0,-1 -6,0 0,-1 -8,0 0,-1 -7,0 0,-1 -14,0 0,-1 -39,0 z m 58,516 0,-1 248,0 0,251 -248,0 0,-250"
               style="fill:url(#linearGradient38);fill-opacity:1;fill-rule:nonzero;stroke:none"
               id="path52" /></g></g></g></g></g></svg>